<svg data-v-8702752c="" version="1.0" xmlns="http://www.w3.org/2000/svg" xmlns:xlink="http://www.w3.org/1999/xlink" width="100%" height="100%" viewBox="0 0 340.000000 250.000000" preserveAspectRatio="xMidYMid meet" color-interpolation-filters="sRGB" class="el-tooltip" style="margin: auto;"><rect data-v-8702752c="" x="0" y="0" width="100%" height="100%" fill="#ffffff" fill-opacity="1" class="background"></rect> <rect data-v-8702752c="" x="0" y="0" width="100%" height="100%" fill="#fff" fill-opacity="1" class="watermarklayer"></rect> <g data-v-8702752c="" class="iconmbgsvg" transform="translate(61.881866693496704,60)"><g fill="#333333" hollow-target="textRect"><g transform="translate(43.12000274658203,0)" mask="url(#6015e54f-b035-42f3-90aa-7702b18bfbca)"><g><rect fill="#333333" fill-opacity="0" stroke-width="2" x="0" y="0" width="130" height="130" class="image-rect"></rect> <svg x="0" y="0" width="130" height="130" filtersec="colorsb7232363625" class="image-svg-svg primary"><svg fill="#000000" xmlns="http://www.w3.org/2000/svg" xmlns:xlink="http://www.w3.org/1999/xlink" version="1.1" x="0px" y="0px" viewBox="11.361000061035156 11.361000061035156 77.27799987792969 77.27799987792969" enable-background="new 0 0 100 100" xml:space="preserve"><path d="M50,11.361L50,11.361C28.66,11.361,11.361,28.66,11.361,50v0c0,21.34,17.299,38.639,38.639,38.639h0  c21.34,0,38.639-17.299,38.639-38.639v0C88.639,28.66,71.34,11.361,50,11.361z M50,82.279c-17.799,0-32.279-14.48-32.279-32.279  c0-17.799,14.48-32.279,32.279-32.279c17.799,0,32.279,14.48,32.279,32.279C82.279,67.799,67.799,82.279,50,82.279z"></path></svg></svg> <!----></g><rect v-gra="id" width="142" height="142" transform="translate(-6, -6)" style="pointer-events:none;" fill="url(#697d5bb7-fa52-455d-ba5d-c7fa9989943f)"></rect></g> <g transform="translate(0,50.72500038146973)"><g data-gra="path-name" fill-rule="" class="tp-name"><g transform="scale(1)"><g><path d="M2.76-28.34L11.56-28.34L18.61-6.20L26.05-28.34L34.84-28.34L34.84 0L29.11 0L29.11-21.25L21.71 0L15.51 0L8.50-21.25L8.50 0L2.76 0L2.76-28.34ZM44.95 0L37.90 0L49.63-28.34L56.55-28.34L68.28 0L61.23 0L58.47-6.54L47.72-6.54L44.95 0ZM57.15-11.60L53.11-21.50L49.08-11.60L57.15-11.60ZM81.75-11.77L81.75-16.83L95.65-16.83L95.65 0L82.98 0Q79.71 0 77.78-0.49Q75.85-0.98 74.27-2.21L74.27-2.21Q69.81-5.65 69.81-14.06L69.81-14.06Q69.81-19.55 71.94-23.20L71.94-23.20Q73.51-25.88 76.23-27.11Q78.95-28.34 83.28-28.34L83.28-28.34L95.65-28.34L95.65-23.28L83.96-23.28Q80.18-23.28 78.48-21.63L78.48-21.63Q76.44-19.67 76.44-14.62L76.44-14.62Q76.44-12.02 76.97-9.94Q77.50-7.86 78.44-6.84L78.44-6.84Q79.24-5.91 80.67-5.48Q82.09-5.06 84.17-5.06L84.17-5.06L89.65-5.06L89.65-11.77L81.75-11.77ZM106.74 0L100.70 0L100.70-28.34L106.74-28.34L106.74 0ZM125.35-5.06L134.01-5.06L134.01 0L124.11 0Q121.31 0 119.82-0.30L119.82-0.30Q114.60-1.32 112.39-6.12L112.39-6.12Q110.94-9.35 110.94-14.11L110.94-14.11Q110.94-19.80 113.15-23.37L113.15-23.37Q114.77-25.96 117.46-27.15Q120.16-28.34 124.41-28.34L124.41-28.34L134.01-28.34L134.01-23.28L125.09-23.28Q121.05-23.28 119.19-21.12L119.19-21.12Q117.61-19.33 117.61-14.66L117.61-14.66Q117.61-8.37 120.04-6.42L120.04-6.42Q121.73-5.06 125.35-5.06L125.35-5.06ZM137.88-28.34L143.87-28.34L143.87-11.34Q143.87-9.31 144.21-8.18Q144.55-7.05 145.36-6.25L145.36-6.25Q147.14-4.50 150.33-4.50L150.33-4.50Q152.37-4.50 153.88-5.21Q155.39-5.91 155.98-7.10L155.98-7.10Q156.58-8.29 156.58-11.34L156.58-11.34L156.58-28.34L162.61-28.34L162.61-11.64Q162.61-8.33 161.91-6.18Q161.21-4.04 159.76-2.72L159.76-2.72Q156.41 0.21 150.25 0.21L150.25 0.21Q143.66 0.21 140.64-2.68L140.64-2.68Q139.07-4.16 138.48-6.01Q137.88-7.86 137.88-11.22L137.88-11.22L137.88-28.34ZM183.77 0L168.09 0L168.09-28.34L184.11-28.34Q187.89-28.34 189.59-27.45L189.59-27.45Q191.59-26.47 192.61-24.18L192.61-24.18Q193.33-22.60 193.33-20.91L193.33-20.91Q193.33-18.70 192.16-16.78Q190.99-14.87 189.21-14.15L189.21-14.15Q193.33-12.28 193.33-7.48L193.33-7.48Q193.33-4.72 192.01-2.85L192.01-2.85Q190.87-1.23 189.08-0.62Q187.30 0 183.77 0L183.77 0ZM174.13-23.28L174.13-16.70L182.33-16.70Q183.64-16.70 184.22-16.83Q184.79-16.95 185.34-17.38L185.34-17.38Q186.66-18.40 186.66-20.18L186.66-20.18Q186.66-21.88 185.43-22.69L185.43-22.69Q184.54-23.28 182.45-23.28L182.45-23.28L174.13-23.28ZM174.13-11.64L174.13-5.06L182.33-5.06Q183.64-5.06 184.24-5.18Q184.83-5.31 185.34-5.74L185.34-5.74Q186.66-6.76 186.66-8.54L186.66-8.54Q186.66-10.24 185.43-11.05L185.43-11.05Q184.54-11.64 182.45-11.64L182.45-11.64L174.13-11.64ZM208.84-28.34L219.00-28.34L219.00-23.28L211.13-23.28Q208.08-23.28 206.67-22.86Q205.27-22.43 204.34-21.20L204.34-21.20Q203.70-20.35 203.46-19.50Q203.23-18.65 203.06-16.61L203.06-16.61L219.00-16.61L219.00-11.56L203.06-11.56Q203.40-7.90 205.23-6.48Q207.06-5.06 211.43-5.06L211.43-5.06L219.00-5.06L219.00 0L211.13 0Q207.95 0 205.53-0.38L205.53-0.38Q201.70-1.02 199.45-3.74L199.45-3.74Q196.22-7.65 196.22-14.32L196.22-14.32Q196.22-21.71 200.77-25.83L200.77-25.83Q202.34-27.24 204.10-27.79Q205.87-28.34 208.84-28.34L208.84-28.34Z" transform="translate(-2.7618695732495846, 28.34103085165343)"></path></g> <!----> <!----> <!----> <!----> <!----> <!----> <!----></g></g> <!----></g></g></g><mask id="93d7295c-580f-42c3-9010-e69f50529606"><g fill="white"><g><rect fill-opacity="1" stroke-width="2" x="0" y="0" width="130" height="130" class="image-rect"></rect> <svg x="0" y="0" width="130" height="130" filtersec="colorsb7232363625" class="image-svg-svg primary"><svg xmlns="http://www.w3.org/2000/svg" xmlns:xlink="http://www.w3.org/1999/xlink" version="1.1" x="0px" y="0px" viewBox="11.361000061035156 11.361000061035156 77.27799987792969 77.27799987792969" enable-background="new 0 0 100 100" xml:space="preserve"><path d="M50,11.361L50,11.361C28.66,11.361,11.361,28.66,11.361,50v0c0,21.34,17.299,38.639,38.639,38.639h0  c21.34,0,38.639-17.299,38.639-38.639v0C88.639,28.66,71.34,11.361,50,11.361z M50,82.279c-17.799,0-32.279-14.48-32.279-32.279  c0-17.799,14.48-32.279,32.279-32.279c17.799,0,32.279,14.48,32.279,32.279C82.279,67.799,67.799,82.279,50,82.279z"></path></svg></svg> </g></g> <g transform="translate(-43.12000274658203,50.72500038146973)"><rect fill="#000" fill-opacity="1" x="-3.5" y="-3.5" width="223.24000549316406" height="35.54999923706055"></rect><rect fill="#000" fill-opacity="1" x="-3.5" y="-3.5"></rect></g><g transform="translate(-43.12000274658203,50.72500038146973)" fill="black"><g data-gra="path-name" fill-rule="" class="tp-name"><g transform="scale(1)"><g><path d="M2.76-28.34L11.56-28.34L18.61-6.20L26.05-28.34L34.84-28.34L34.84 0L29.11 0L29.11-21.25L21.71 0L15.51 0L8.50-21.25L8.50 0L2.76 0L2.76-28.34ZM44.95 0L37.90 0L49.63-28.34L56.55-28.34L68.28 0L61.23 0L58.47-6.54L47.72-6.54L44.95 0ZM57.15-11.60L53.11-21.50L49.08-11.60L57.15-11.60ZM81.75-11.77L81.75-16.83L95.65-16.83L95.65 0L82.98 0Q79.71 0 77.78-0.49Q75.85-0.98 74.27-2.21L74.27-2.21Q69.81-5.65 69.81-14.06L69.81-14.06Q69.81-19.55 71.94-23.20L71.94-23.20Q73.51-25.88 76.23-27.11Q78.95-28.34 83.28-28.34L83.28-28.34L95.65-28.34L95.65-23.28L83.96-23.28Q80.18-23.28 78.48-21.63L78.48-21.63Q76.44-19.67 76.44-14.62L76.44-14.62Q76.44-12.02 76.97-9.94Q77.50-7.86 78.44-6.84L78.44-6.84Q79.24-5.91 80.67-5.48Q82.09-5.06 84.17-5.06L84.17-5.06L89.65-5.06L89.65-11.77L81.75-11.77ZM106.74 0L100.70 0L100.70-28.34L106.74-28.34L106.74 0ZM125.35-5.06L134.01-5.06L134.01 0L124.11 0Q121.31 0 119.82-0.30L119.82-0.30Q114.60-1.32 112.39-6.12L112.39-6.12Q110.94-9.35 110.94-14.11L110.94-14.11Q110.94-19.80 113.15-23.37L113.15-23.37Q114.77-25.96 117.46-27.15Q120.16-28.34 124.41-28.34L124.41-28.34L134.01-28.34L134.01-23.28L125.09-23.28Q121.05-23.28 119.19-21.12L119.19-21.12Q117.61-19.33 117.61-14.66L117.61-14.66Q117.61-8.37 120.04-6.42L120.04-6.42Q121.73-5.06 125.35-5.06L125.35-5.06ZM137.88-28.34L143.87-28.34L143.87-11.34Q143.87-9.31 144.21-8.18Q144.55-7.05 145.36-6.25L145.36-6.25Q147.14-4.50 150.33-4.50L150.33-4.50Q152.37-4.50 153.88-5.21Q155.39-5.91 155.98-7.10L155.98-7.10Q156.58-8.29 156.58-11.34L156.58-11.34L156.58-28.34L162.61-28.34L162.61-11.64Q162.61-8.33 161.91-6.18Q161.21-4.04 159.76-2.72L159.76-2.72Q156.41 0.21 150.25 0.21L150.25 0.21Q143.66 0.21 140.64-2.68L140.64-2.68Q139.07-4.16 138.48-6.01Q137.88-7.86 137.88-11.22L137.88-11.22L137.88-28.34ZM183.77 0L168.09 0L168.09-28.34L184.11-28.34Q187.89-28.34 189.59-27.45L189.59-27.45Q191.59-26.47 192.61-24.18L192.61-24.18Q193.33-22.60 193.33-20.91L193.33-20.91Q193.33-18.70 192.16-16.78Q190.99-14.87 189.21-14.15L189.21-14.15Q193.33-12.28 193.33-7.48L193.33-7.48Q193.33-4.72 192.01-2.85L192.01-2.85Q190.87-1.23 189.08-0.62Q187.30 0 183.77 0L183.77 0ZM174.13-23.28L174.13-16.70L182.33-16.70Q183.64-16.70 184.22-16.83Q184.79-16.95 185.34-17.38L185.34-17.38Q186.66-18.40 186.66-20.18L186.66-20.18Q186.66-21.88 185.43-22.69L185.43-22.69Q184.54-23.28 182.45-23.28L182.45-23.28L174.13-23.28ZM174.13-11.64L174.13-5.06L182.33-5.06Q183.64-5.06 184.24-5.18Q184.83-5.31 185.34-5.74L185.34-5.74Q186.66-6.76 186.66-8.54L186.66-8.54Q186.66-10.24 185.43-11.05L185.43-11.05Q184.54-11.64 182.45-11.64L182.45-11.64L174.13-11.64ZM208.84-28.34L219.00-28.34L219.00-23.28L211.13-23.28Q208.08-23.28 206.67-22.86Q205.27-22.43 204.34-21.20L204.34-21.20Q203.70-20.35 203.46-19.50Q203.23-18.65 203.06-16.61L203.06-16.61L219.00-16.61L219.00-11.56L203.06-11.56Q203.40-7.90 205.23-6.48Q207.06-5.06 211.43-5.06L211.43-5.06L219.00-5.06L219.00 0L211.13 0Q207.95 0 205.53-0.38L205.53-0.38Q201.70-1.02 199.45-3.74L199.45-3.74Q196.22-7.65 196.22-14.32L196.22-14.32Q196.22-21.71 200.77-25.83L200.77-25.83Q202.34-27.24 204.10-27.79Q205.87-28.34 208.84-28.34L208.84-28.34Z" transform="translate(-2.7618695732495846, 28.34103085165343)"></path></g>       </g></g> </g></mask><defs v-gra="od"></defs><defs v-gra="id"><filter id="4fb3a3b5-689b-4aca-998c-9c83812dd08e" filterUnits="userSpaceOnUse"><feColorMatrix type="matrix" values="0 0 0 0 0.99609375  0 0 0 0 0.99609375  0 0 0 0 0.99609375  0 0 0 1 0"></feColorMatrix></filter><linearGradient x1="0" y1="1" x2="1" y2="0" id="697d5bb7-fa52-455d-ba5d-c7fa9989943f"><stop offset="0%" stop-color="#fdb051"></stop><stop offset="50%" stop-color="#f2203e"></stop><stop offset="100%" stop-color="#5342d6"></stop></linearGradient><filter id="42443b3f1de60f6b6fd3b6a9844b4764" filterUnits="userSpaceOnUse"><feColorMatrix type="matrix" values="0 0 0 0 0.99609375  0 0 0 0 0.99609375  0 0 0 0 0.99609375  0 0 0 1 0"></feColorMatrix></filter></defs><mask v-gra="im" id="6015e54f-b035-42f3-90aa-7702b18bfbca"><g mask="url(#93d7295c-580f-42c3-9010-e69f50529606)" filter="url(#4fb3a3b5-689b-4aca-998c-9c83812dd08e)"><g><rect fill="#333333" fill-opacity="0" stroke-width="2" x="0" y="0" width="130" height="130" class="image-rect"></rect> <svg x="0" y="0" width="130" height="130" filtersec="colorsb7232363625" class="image-svg-svg primary"><svg fill="#000000" xmlns="http://www.w3.org/2000/svg" xmlns:xlink="http://www.w3.org/1999/xlink" version="1.1" x="0px" y="0px" viewBox="11.361000061035156 11.361000061035156 77.27799987792969 77.27799987792969" enable-background="new 0 0 100 100" xml:space="preserve"><path d="M50,11.361L50,11.361C28.66,11.361,11.361,28.66,11.361,50v0c0,21.34,17.299,38.639,38.639,38.639h0  c21.34,0,38.639-17.299,38.639-38.639v0C88.639,28.66,71.34,11.361,50,11.361z M50,82.279c-17.799,0-32.279-14.48-32.279-32.279  c0-17.799,14.48-32.279,32.279-32.279c17.799,0,32.279,14.48,32.279,32.279C82.279,67.799,67.799,82.279,50,82.279z"></path></svg></svg> <!----></g></g></mask></svg>